<?xml version="1.0" encoding="utf-8"?>
<!-- Generator: Adobe Illustrator 27.8.1, SVG Export Plug-In . SVG Version: 6.00 Build 0)  -->
<svg version="1.1" id="Layer_1" xmlns="http://www.w3.org/2000/svg" xmlns:xlink="http://www.w3.org/1999/xlink" x="0px" y="0px"
	 viewBox="0 0 400 139" style="enable-background:new 0 0 400 139;" xml:space="preserve">
<style type="text/css">
	.st0{fill-rule:evenodd;clip-rule:evenodd;fill:#2086C9;}
	.st1{fill-rule:evenodd;clip-rule:evenodd;fill:#FFFFFF;}
</style>
<g>
	<path class="st0" d="M116,72.4c1.5-16.2-5.6-30.8-13.2-39.4c-7.5-8.4-18.7-16.2-35.2-17.6c-8.1-0.7-16,0.8-22.6,3.4
		c-7.1,2.8-14.7,7.9-19.6,13.5c-3.2,3.7-5.8,7-8.1,11.7c-6.7,13.8-7.9,29-2.5,43.5c2.6,7,5.4,11,9.9,16.5c3.6,4.4,9.6,9,14.7,11.7
		c6,3.2,12.4,5.3,20.5,5.9c8.1,0.7,16.2-0.8,22.8-3.4c6.9-2.7,11.6-6.1,16.2-10.2c1.1-0.9,2.4-2.3,3.3-3.4
		C110.4,95.2,114.8,85.7,116,72.4z"/>
	<path class="st1" d="M33.6,52.9c2.2-0.1,6.8,7.1,22.2,2.2c3.5-1.1,6.8-2.5,10.2-3.8c7.5-2.8,14.6-5.7,22.6-2.6
		c1.5,0.6,3.5,1.6,4.5,2.5c1.6,1.4,1.2,3.1,1.2,5.7v21c0,1.2,0.3,5.8-0.3,6.6c-0.6,0.1-3.2-1.5-4.7-2.1c-5.7-2.3-12-1.5-17.6,0.1
		c-10.4,2.9-21.9,9.6-33,5.6c-6.4-2.3-5.5-3.4-5.5-8.2V59.3C33.2,57.6,32.9,54,33.6,52.9z"/>
	<path class="st0" d="M342.7,72.4c-0.2-2-0.1-5.5,0-7.6c0-2.3,0.7-4.3,1.6-5.9c4.4-7.4,15.1-7.4,19.4,0.1c1,1.7,1.6,3.5,1.6,6
		c0,1.9,0.2,5.8,0,7.5L342.7,72.4L342.7,72.4z M342.7,84l22.6,0l0,11.5l11.4,0c0.2-6.3,0-12.9,0-19.2c0-5.6,0.5-13.1-1-18.1
		c-2.6-8.8-10.7-16.5-21.8-16.5c-11,0-19.2,7.9-21.7,16.6c-1.4,5.1-0.9,12.4-0.9,18.1c0,6.3-0.1,12.7,0,19.1l11.4,0L342.7,84z"/>
	<path class="st0" d="M212.4,72.4c-0.2-2-0.1-5.5,0-7.6c0.2-6.1,4.7-11.5,11.4-11.5c6.6,0,11.2,5.4,11.3,11.6c0,2.3,0.1,5.2,0,7.5
		L212.4,72.4L212.4,72.4z M212.4,84l22.7,0.1l0,11.5l11.3,0c0.2-6.3,0-12.9,0-19.2c0-5.7,0.5-13.1-1-18.1
		c-2.5-8.6-10.6-16.4-21.7-16.4c-11.1,0-19.2,7.7-21.8,16.5c-1.5,5-0.9,12.6-0.9,18.2c0,3.2,0,6.4,0,9.6c0,3-0.2,6.5,0,9.5l11.3,0
		L212.4,84z"/>
	<path class="st0" d="M147.3,53.3c2.5-0.1,7-0.2,9.4,0.1c13.6,1.6,18.2,19.7,6.8,27.8c-4.5,3.2-10.4,3-16.2,2.7L147.3,53.3
		L147.3,53.3z M135.9,95.6c6,0.1,12.1,0,18.1,0c6,0,10.1-1.3,14.3-3.8c16.6-9.6,17.9-35.5,0-46.3c-4-2.4-8.6-3.8-14.3-3.8
		c-6,0-12.1-0.1-18.1,0L135.9,95.6z"/>
	<path class="st0" d="M277.6,95.6c0.1-4.4,0-9,0-13.5c0-4.4,0-8.9,0-13.3c0-5-0.1-7.7,2.4-11c1.7-2.2,4.8-4.4,9-4.4
		c4.3,0,7.2,2.3,9,4.6c2.5,3.3,2.3,6.2,2.3,11c0,8.8-0.2,17.9,0,26.7l11.4,0c0.1-6.3,0-12.8,0-19.2c0-5.6,0.5-13.1-1-18.1
		c-2.6-8.8-10.7-16.5-21.8-16.5c-11.1,0-19.2,7.8-21.7,16.6c-1.4,5-0.9,12.5-0.9,18.1c0,6.3-0.2,12.9,0,19.1L277.6,95.6z"/>
</g>
</svg>
